<svg width="35" height="35" viewBox="0 0 35 35" fill="none" xmlns="http://www.w3.org/2000/svg">
<path d="M0.00012207 0H12.3583C15.5675 0.0471256 22.1539 2.25496 22.826 10.7093H12.3583C8.36729 10.7093 0.644289 9.64189 0.00012207 0Z" fill="white"/>
<rect x="12.1738" y="12.2391" width="10.6521" height="10.7093" fill="white"/>
<path d="M35 22.9485C32.1749 22.9485 29.4655 21.8202 27.4678 19.8118C25.4702 17.8034 24.3479 15.0795 24.3479 12.2392L35 12.2392V22.9485Z" fill="white"/>
<path d="M34.9392 5.46987C34.9392 8.444 32.5411 10.855 29.5828 10.855C26.6246 10.855 24.2264 8.444 24.2264 5.46987C24.2264 2.49573 26.6246 0.0847168 29.5828 0.0847168C32.5411 0.0847168 34.9392 2.49573 34.9392 5.46987Z" fill="white"/>
<path fill-rule="evenodd" clip-rule="evenodd" d="M0.00292254 17.4015C0.0010562 17.4599 0.000115868 17.5186 0.000115863 17.5775C0.000115604 20.5516 2.39825 22.9626 5.3565 22.9626C8.31475 22.9626 10.7129 20.5516 10.7129 17.5775C10.7129 14.6151 8.33358 12.2113 5.39138 12.1925L5.39138 12.1923L-1.52759e-05 12.1923L-1.66826e-05 17.4015L0.00292254 17.4015Z" fill="white"/>
<path d="M0.000115863 29.6148C0.000116121 26.6407 2.39825 24.2296 5.3565 24.2296C8.31476 24.2296 10.7129 26.6407 10.7129 29.6148C10.7129 32.5889 8.31475 34.9999 5.3565 34.9999C2.39825 34.9999 0.000115604 32.5889 0.000115863 29.6148Z" fill="white"/>
<path fill-rule="evenodd" clip-rule="evenodd" d="M17.4984 24.2297C14.5243 24.2297 12.1133 26.6407 12.1133 29.6148C12.1133 32.589 14.5243 35 17.4984 35H29.2679V35H34.6593V29.7908H34.6563C34.6582 29.7324 34.6591 29.6737 34.6591 29.6148C34.6591 26.6407 32.2481 24.2297 29.274 24.2297H17.4984Z" fill="white"/>
</svg>
