<svg width="144" height="42" viewBox="0 0 144 42" fill="none" xmlns="http://www.w3.org/2000/svg">
<path d="M0 3H12.3582C15.5674 3.04713 22.1537 5.25496 22.8259 13.7093H12.3582C8.36717 13.7093 0.644167 12.6419 0 3Z" fill="white"/>
<rect x="12.1737" y="15.2391" width="10.6521" height="10.7093" fill="white"/>
<path d="M34.9999 25.9485C32.1748 25.9485 29.4654 24.8202 27.4677 22.8118C25.47 20.8034 24.3478 18.0795 24.3478 15.2392L34.9999 15.2392V25.9485Z" fill="white"/>
<path d="M34.9391 8.46987C34.9391 11.444 32.541 13.855 29.5827 13.855C26.6245 13.855 24.2263 11.444 24.2263 8.46987C24.2263 5.49573 26.6245 3.08472 29.5827 3.08472C32.541 3.08472 34.9391 5.49573 34.9391 8.46987Z" fill="white"/>
<path fill-rule="evenodd" clip-rule="evenodd" d="M0.00280047 20.4015C0.000934126 20.4599 -6.20233e-06 20.5186 -6.20745e-06 20.5775C-6.46607e-06 23.5516 2.39813 25.9626 5.35638 25.9626C8.31463 25.9626 10.7128 23.5516 10.7128 20.5775C10.7128 17.6151 8.33346 15.2113 5.39126 15.1925L5.39126 15.1923L-0.000137346 15.1923L-0.000138753 20.4015L0.00280047 20.4015Z" fill="white"/>
<path d="M-6.20745e-06 32.6148C-5.94883e-06 29.6407 2.39813 27.2296 5.35638 27.2296C8.31463 27.2296 10.7128 29.6407 10.7128 32.6148C10.7128 35.5889 8.31463 37.9999 5.35638 37.9999C2.39813 37.9999 -6.46607e-06 35.5889 -6.20745e-06 32.6148Z" fill="white"/>
<path fill-rule="evenodd" clip-rule="evenodd" d="M17.4983 27.2297C14.5242 27.2297 12.1132 29.6407 12.1132 32.6148C12.1132 35.589 14.5242 38 17.4983 38H29.2678V38H34.6592V32.7908H34.6562C34.6581 32.7324 34.659 32.6737 34.659 32.6148C34.659 29.6407 32.248 27.2297 29.2739 27.2297H17.4983Z" fill="white"/>
<path d="M64.196 15.62C62.4973 14.78 60.6773 14.36 58.736 14.36C57.6907 14.36 56.888 14.584 56.328 15.032C55.768 15.48 55.488 16.0773 55.488 16.824C55.488 18.1493 56.4493 19.0827 58.372 19.624C60.9853 20.352 62.824 21.2387 63.888 22.284C64.9707 23.3293 65.512 24.6827 65.512 26.344C65.512 28.2667 64.8773 29.7413 63.608 30.768C62.3387 31.776 60.5 32.28 58.092 32.28C55.6467 32.28 53.4533 31.6733 51.512 30.46L52.492 27.324C54.284 28.5373 56.1787 29.144 58.176 29.144C59.2773 29.144 60.108 28.9107 60.668 28.444C61.2467 27.9587 61.536 27.2773 61.536 26.4C61.536 25.5973 61.3027 24.9627 60.836 24.496C60.388 24.0293 59.5667 23.6187 58.372 23.264C55.9827 22.5733 54.2467 21.7053 53.164 20.66C52.1 19.6147 51.568 18.336 51.568 16.824C51.568 15.144 52.184 13.8 53.416 12.792C54.6667 11.784 56.412 11.28 58.652 11.28C60.9667 11.28 63.0853 11.7187 65.008 12.596L64.196 15.62ZM66.7337 17.44H70.1497L70.2057 19.484H70.2617C70.8217 18.756 71.5124 18.1867 72.3337 17.776C73.1737 17.3653 74.0324 17.16 74.9097 17.16C76.5897 17.16 77.8217 17.6827 78.6057 18.728C79.4084 19.7547 79.8097 21.444 79.8097 23.796V32H76.2257V24.16C76.2257 22.5547 76.0391 21.472 75.6657 20.912C75.2924 20.3333 74.6204 20.044 73.6497 20.044C72.8284 20.044 72.0724 20.464 71.3817 21.304C70.7097 22.144 70.3737 23.124 70.3737 24.244V32H66.7337V17.44ZM87.4428 17.16C89.6641 17.16 91.2601 17.5987 92.2308 18.476C93.2014 19.3347 93.6868 20.7347 93.6868 22.676V28.08C93.6868 29.4053 93.8268 30.712 94.1068 32H90.6628C90.5508 31.384 90.4668 30.6653 90.4108 29.844H90.3548C89.8321 30.6093 89.1228 31.2067 88.2268 31.636C87.3494 32.0653 86.3881 32.28 85.3428 32.28C83.9801 32.28 82.8881 31.9067 82.0668 31.16C81.2641 30.3947 80.8628 29.34 80.8628 27.996C80.8628 26.372 81.5441 25.0747 82.9068 24.104C84.2881 23.1147 86.2668 22.62 88.8428 22.62H90.0468V22.536C90.0468 21.5467 89.8508 20.856 89.4588 20.464C89.0668 20.072 88.3668 19.876 87.3588 19.876C85.5294 19.876 83.8028 20.296 82.1788 21.136L81.6468 18.42C83.4201 17.58 85.3521 17.16 87.4428 17.16ZM84.2788 27.716C84.2788 28.3133 84.4561 28.78 84.8108 29.116C85.1654 29.452 85.6508 29.62 86.2668 29.62C87.3308 29.62 88.2268 29.2747 88.9548 28.584C89.6828 27.8933 90.0468 27.0253 90.0468 25.98V25.028H88.8428C87.3681 25.028 86.2388 25.28 85.4548 25.784C84.6708 26.2693 84.2788 26.9133 84.2788 27.716ZM106.04 24.72C106.04 23.152 105.741 21.976 105.144 21.192C104.565 20.408 103.744 20.016 102.68 20.016C101.69 20.016 100.888 20.4267 100.272 21.248C99.6743 22.0507 99.3756 23.1613 99.3756 24.58V24.86C99.3756 26.316 99.6743 27.4453 100.272 28.248C100.888 29.032 101.69 29.424 102.68 29.424C103.669 29.424 104.472 29.0227 105.088 28.22C105.722 27.3987 106.04 26.232 106.04 24.72ZM109.54 24.72C109.54 27.128 108.998 28.9947 107.916 30.32C106.852 31.6267 105.452 32.28 103.716 32.28C101.924 32.28 100.496 31.5987 99.4316 30.236H99.3756V38.16H95.7356V17.44H99.1516L99.2076 19.484H99.2636C100.384 17.9347 101.868 17.16 103.716 17.16C105.526 17.16 106.945 17.804 107.972 19.092C109.017 20.38 109.54 22.256 109.54 24.72ZM116.016 32L123.1 11.56H127.3L134.412 32H130.212L128.756 27.072H121.56L120.076 32H116.016ZM122.428 24.076H127.86L125.172 15.004H125.116L122.428 24.076ZM136.032 32V11.56H140.316V32H136.032Z" fill="white"/>
</svg>
